<svg fill="#000000" xmlns="http://www.w3.org/2000/svg" viewBox="0 0 32 32" width="50px" height="50px"><path d="M 24.275391 4.7246094 C 25.980391 7.0446094 27 9.9 27 13 C 27 20.732 20.732 27 13 27 C 9.9 27 7.0446094 25.980391 4.7246094 24.275391 C 7.2736094 27.741391 11.368 30 16 30 C 23.732 30 30 23.732 30 16 C 30 11.368 27.741391 7.2736094 24.275391 4.7246094 z M 7.3496094 6 C 5.3086094 7.65 4 10.171 4 13 C 4 16.255 5.7342656 19.096734 8.3222656 20.677734 C 7.4892656 19.313734 7 17.716 7 16 C 7 13.338 8.163 10.952688 10 9.3046875 L 10 6 L 7.3496094 6 z M 16 6 L 16 10 C 16 11.657 14.657 13 13 13 C 13 14.657 14.343 16 16 16 C 17.657 16 19 14.657 19 13 L 19 10 L 21 10 L 19 6 L 18 6 L 16 6 z"/></svg>